#!OML:ASF F:\VICON\USERDATA\INSTALL\rory3\rory3.ASF
:FULLY-SPECIFIED
:DEGREES
10
root 4.600009999999999 18.0317 -22.890099999999936 -2.17722 -4.522710000000003 -6.428250000000006
lfemur -28.072900000000004 3.10903999999999 -13.831900000000001
ltibia 50.463700000000046
lfoot -5.3633999999999995 4.0906000000000144
ltoes -1.434119999999997
rfemur -4.770179999999993 7.952090000000003 33.482099999999996
rtibia 29.288500000000006
rfoot -18.217899999999972 -6.41072
rtoes 7.994289999999992
lowerback 1.0 0.7486650000000009 5.81986000000001
upperback 0.840182 1.9520700000000013 2.592879999999999
thorax -5.889820000000001 0.8368250000000007 -0.8799290000000004
lowerneck -17.419 -3.313250000000001 -2.0655099999999997
upperneck 20.308 -4.104239999999999 0.30035000000000006
head 9.324719999999997 -2.041969999999999 -0.09058049999999974
lclavicle -1.5405799999999967e-15 3.578119999999997e-15
lhumerus -33.75170000000001 5.839270000000006 82.4182
lradius 28.6965
lwrist 5.748779999999998
lhand -27.2121 19.433000000000003
lfingers 7.12502
lthumb -0.6249780000000001 49.4118
rclavicle -1.5405799999999967e-15 3.578119999999997e-15
rhumerus -24.936600000000006 -10.66609999999999 -81.7899
rradius 26.4531
rwrist 2.0774600000000043
rhand -16.8866 1.0
rfingers 7.12502
rthumb 9.3448 -20.874299999999998
11
root 4.60935 17.9965 -22.216900000000006 -1.616619999999999 -4.726879999999998 -7.26814000000001
lfemur -28.947799999999987 1.6226699999999932 -12.522900000000014
ltibia 40.490099999999984
lfoot -5.426309999999999 5.294020000000001
ltoes -5.917410000000005
rfemur -2.073140000000011 7.999529999999993 34.49610000000001
rtibia 27.634400000000014
rfoot -19.368500000000026 -6.73795
rtoes 7.424100000000007
lowerback 1.0 0.775658999999999 6.4877300000000035
upperback 0.431086 2.121929999999999 2.808479999999998
thorax -6.316449999999997 0.8858530000000013 -1.0570599999999961
lowerneck -16.4503 -3.1702600000000003 -2.12019
upperneck 19.870899999999995 -3.8645300000000002 0.10528399999999916
head 8.99078 -1.9615700000000003 -0.09616199999999984
lclavicle -3.304800000000009e-15 3.4389699999999914e-14
lhumerus -35.1276 7.119240000000008 81.7312
lradius 27.9743
lwrist 5.113330000000001
lhand -26.2525 22.5457
lfingers 7.12502
lthumb 0.30185600000000157 52.5253
rclavicle -3.304800000000009e-15 3.4389699999999914e-14
rhumerus -24.402100000000004 -8.451699999999986 -82.0509
rradius 28.192600000000002
rwrist 0.629394999999989
rhand -18.3673 1.0
rfingers 7.12502
rthumb 7.915800000000002 -7.59613
12
root 4.624219999999999 17.9154 -21.51689999999994 -0.8807849999999993 -5.116879999999994 -7.824250000000001
lfemur -28.70969999999995 -0.6367550000000007 -10.90310000000002
ltibia 29.045300000000005
lfoot -4.78528 5.342680000000015
ltoes -6.188879999999997
rfemur 0.5584260000000132 8.035020000000008 35.100199999999994
rtibia 26.070300000000024
rfoot -20.287999999999982 -6.948379999999999
rtoes 4.444169999999999
lowerback 1.0 1.1229799999999983 6.987660000000003
upperback 0.5560009999999999 2.586870000000002 2.7464699999999986
thorax -5.82598 1.1157700000000006 -1.462109999999994
lowerneck -17.2637 -3.34859 -1.87832
upperneck 19.6187 -4.140950000000001 0.052993799999999314
head 9.04751 -2.0745299999999993 -0.2002390000000001
lclavicle -1.2349500000000012e-14 -2.385419999999998e-14
lhumerus -34.808400000000006 8.371919999999992 80.8617
lradius 26.476400000000005
lwrist 4.254579999999999
lhand -26.4697 19.366600000000005
lfingers 7.12502
lthumb 0.09211460000000016 49.34629999999999
rclavicle -1.2349500000000012e-14 -2.385419999999998e-14
rhumerus -22.820200000000014 -7.500879999999972 -82.3367
rradius 29.49089999999999
rwrist -0.5674600000000014
rhand -19.056100000000004 1.0
rfingers 7.12502
rthumb 7.251030000000002 -7.43506
13
root 4.654 17.8337 -20.79059999999996 -0.0758555999999988 -5.355690000000008 -7.794639999999994
lfemur -27.516000000000027 -5.040579999999997 -8.928380000000008
ltibia 16.962299999999964
lfoot -4.48213 6.6865300000000145
ltoes 1.34926999999999
rfemur 3.0457499999999875 8.29301000000001 35.03959999999999
rtibia 24.826799999999984
rfoot -21.49680000000004 -7.03864
rtoes 3.5773899999999994
lowerback 1.0 1.3810100000000007 7.022609999999994
upperback 0.4463479999999997 2.849850000000002 2.4868799999999993
thorax -5.463309999999999 1.2514500000000013 -1.7701799999999916
lowerneck -17.6154 -3.259879999999999 -1.83589
upperneck 19.961899999999996 -4.088890000000001 0.32698400000000055
head 9.234990000000002 -2.013329999999999 -0.11676099999999996
lclavicle -9.106820000000013e-15 -1.0038599999999991e-14
lhumerus -35.0528 9.488319999999991 79.9052
lradius 25.027400000000004
lwrist 3.3418599999999974
lhand -26.0587 21.8984
lfingers 7.12502
lthumb 0.48907900000000026 51.8776
rclavicle -9.106820000000013e-15 -1.0038599999999991e-14
rhumerus -22.015299999999996 -7.377670000000011 -82.4869
rradius 30.706199999999995
rwrist -1.0108500000000102
rhand -18.914 1.0
rfingers 7.12502
rthumb 7.388150000000005 -7.58614
14
root 4.699639999999999 17.7545 -20.063599999999973 0.5004760000000053 -5.552960000000004 -7.901199999999996
lfemur -25.7825 -6.731859999999992 -7.926760000000009
ltibia 7.797540000000019
lfoot -3.452370000000002 6.817080000000019
ltoes -1.8417100000000046
rfemur 5.508559999999971 7.728130000000004 34.92989999999999
rtibia 23.729299999999974
rfoot -21.469900000000024 -7.11924
rtoes -1.5984700000000078
lowerback 1.0 1.5779999999999994 7.195540000000004
upperback 0.3420189999999992 3.0929199999999955 2.32144
thorax -5.32014 1.3677699999999984 -2.061720000000003
lowerneck -17.4742 -3.4405899999999985 -1.5449000000000002
upperneck 19.4982 -4.374389999999999 0.14723600000000003
head 9.03996 -2.147219999999999 -0.25506399999999985
lclavicle 9.58515000000001e-15 -1.8934200000000002e-14
lhumerus -35.2051 10.573799999999988 79.0629
lradius 23.501400000000004
lwrist 2.48535
lhand -26.066899999999997 18.6792
lfingers 7.12502
lthumb 0.4810840000000014 48.6584
rclavicle 9.58515000000001e-15 -1.8934200000000002e-14
rhumerus -21.201700000000006 -7.42018 -82.523
rradius 31.195800000000013
rwrist -1.7190600000000043
rhand -18.1102 1.0
rfingers 7.12502
rthumb 8.163959999999998 -6.39699
15
root 4.753659999999999 17.6962 -19.322799999999962 1.104859999999996 -5.134910000000003 -8.467439999999993
lfemur -26.857499999999973 -5.29341 -8.266489999999996
ltibia 9.067149999999977
lfoot -2.497709999999998 5.470590000000008
ltoes 0.05404590000000864
rfemur 6.8235300000000265 7.3512600000000035 35.33200000000001
rtibia 24.77139999999998
rfoot -21.87440000000001 -6.2236400000000005
rtoes -1.7898399999999945
lowerback 1.0 1.5401999999999978 7.798949999999986
upperback 0.22301100000000024 3.108750000000001 2.401629999999999
thorax -5.314909999999999 1.3588299999999978 -2.309280000000002
lowerneck -18.5177 -3.400100000000001 -1.6524300000000003
upperneck 20.259 -4.287449999999998 0.18782300000000063
head 9.49738 -2.1011000000000006 -0.2404030000000003
lclavicle 3.387410000000003e-14 1.1728300000000031e-14
lhumerus -35.09460000000001 11.216599999999989 78.73400000000001
lradius 22.05420000000001
lwrist 1.8773300000000064
lhand -26.2251 21.3787
lfingers 7.12502
lthumb 0.32835200000000053 51.3582
rclavicle 3.387410000000003e-14 1.1728300000000031e-14
rhumerus -20.526300000000013 -8.11966999999998 -82.3267
rradius 31.171400000000006
rwrist -1.557579999999989
rhand -18.4665 1.0
rfingers 7.12502
rthumb 7.820140000000003 -7.35684
16
root 4.81709 17.5734 -18.531299999999955 0.6271560000000065 -5.258690000000003 -8.51751
lfemur -28.645300000000006 -3.8044600000000033 -9.624249999999993
ltibia 17.257199999999976
lfoot -2.924280000000002 2.727119999999994
ltoes -8.605330000000013
rfemur 9.80703000000003 7.719010000000004 35.350499999999975
rtibia 25.9785
rfoot -20.63760000000002 -5.906600000000001
rtoes -5.9701300000000135
lowerback 1.0 1.6541500000000016 7.6276799999999945
upperback 0.18872900000000026 3.286130000000003 2.5517400000000006
thorax -5.54709 1.4424099999999989 -2.09635
lowerneck -17.6449 -3.45046 -1.7530599999999998
upperneck 20.017499999999995 -4.293750000000001 -0.021612400000000198
head 9.25138 -2.1412600000000004 -0.27766300000000027
lclavicle 2.5071699999999982e-14 -3.657640000000005e-14
lhumerus -35.4485 12.770500000000016 78.0833
lradius 20.470800000000004
lwrist -0.16824899999998788
lhand -26.2481 22.0178
lfingers 7.12502
lthumb 0.306091000000001 51.9973
rclavicle 2.5071699999999982e-14 -3.657640000000005e-14
rhumerus -21.002399999999987 -8.75431999999998 -81.7577
rradius 30.99700000000001
rwrist -0.7701199999999933
rhand -18.3146 1.0
rfingers 7.12502
rthumb 7.966719999999998 -7.32212
17
root 4.94589 17.686 -17.550099999999944 -0.5238680000000024 -7.790960000000014 -6.51541999999999
lfemur -26.778400000000005 -2.7545100000000016 -12.576800000000013
ltibia 22.160899999999984
lfoot 0.8955950000000117 0.4307919999999932
ltoes -6.041540000000003
rfemur 12.295900000000017 9.127930000000003 32.39889999999998
rtibia 29.347000000000023
rfoot -18.205400000000004 -2.793089999999994
rtoes -9.845209999999987
lowerback 1.0 2.5477000000000007 6.182580000000007
upperback 0.698985 4.159520000000003 1.9506200000000005
thorax -4.502400000000001 1.9480099999999985 -1.9841300000000042
lowerneck -17.2484 -3.369450000000001 -1.83331
upperneck 20.512799999999995 -4.178230000000002 -0.0030321999999999294
head 9.35288 -2.092249999999999 -0.24150400000000039
lclavicle 6.328810000000014e-14 1.59028e-14
lhumerus -36.3347 13.301599999999983 77.8893
lradius 19.815799999999996
lwrist -0.586842999999992
lhand -26.1552 21.9162
lfingers 7.12502
lthumb 0.39588600000000185 51.8956
rclavicle 6.328810000000014e-14 1.59028e-14
rhumerus -21.4989 -10.184200000000006 -81.2462
rradius 29.821999999999992
rwrist 0.9067460000000076
rhand -18.9169 1.0
rfingers 7.12502
rthumb 7.385349999999998 -7.38118
18
root 4.97561 17.7015 -16.82030000000005 -0.5183310000000014 -3.796459999999998 -5.232979999999998
lfemur -28.012599999999992 -2.5521899999999977 -15.726700000000005
ltibia 26.786599999999996
lfoot -0.017025100000004123 -3.59466
ltoes 0.02732439999999281
rfemur 9.188370000000003 5.786970000000001 30.822800000000008
rtibia 37.4793
rfoot -11.385899999999998 -1.363929999999998
rtoes -11.272199999999975
lowerback 1.0 1.48133 4.763250000000001
upperback 0.1282909999999995 2.640249999999998 1.6303999999999998
thorax -5.608050000000002 1.1899799999999996 -1.3672800000000047
lowerneck -17.1955 -3.405989999999999 -1.75018
upperneck 21.179000000000002 -4.294769999999999 0.1341310000000009
head 9.57876 -2.1221500000000004 -0.23005300000000034
lclavicle -8.510470000000041e-16 -2.574260000000004e-14
lhumerus -36.20219999999999 13.61170000000002 77.6598
lradius 18.458099999999988
lwrist -1.1684700000000037
lhand -26.5619 19.226400000000005
lfingers 7.12502
lthumb 0.003009709999998722 49.206100000000006
rclavicle -8.510470000000041e-16 -2.574260000000004e-14
rhumerus -22.4003 -13.648599999999995 -80.4664
rradius 28.126800000000003
rwrist 2.9713000000000007
rhand -18.769 1.0
rfingers 7.12502
rthumb 7.528120000000002 -7.18468
